<?xml version="1.0" encoding="UTF-8" standalone="no"?>
<svg width="41px" height="41px" viewBox="0 0 41 41" version="1.1" xmlns="http://www.w3.org/2000/svg" xmlns:xlink="http://www.w3.org/1999/xlink" xmlns:sketch="http://www.bohemiancoding.com/sketch/ns">
    <!-- Generator: Sketch 3.1.1 (8761) - http://www.bohemiancoding.com/sketch -->
    <title>color</title>
    <desc>Created with Sketch.</desc>
    <defs></defs>
    <g id="Page-1" stroke="none" stroke-width="1" fill="none" fill-rule="evenodd" sketch:type="MSPage">
        <g id="color" sketch:type="MSLayerGroup" fill="#FFFFFF">
            <g id="Icons" sketch:type="MSShapeGroup">
                <g id="Design-&amp;-Development">
                    <g id="Palette">
                        <path d="M17,27.65 L16.939,1.899 C16.939,1.732 17.022,1.576 17.16,1.483 C17.244,1.427 17.341,1.398 17.439,1.398 C17.503,1.398 17.568,1.411 17.63,1.436 L24.939,4.464 C25.555,4.719 26.036,5.199 26.292,5.816 C26.548,6.433 26.548,7.112 26.292,7.729 L17.962,27.841 C17.884,28.03 17.699,28.149 17.5,28.149 C17.468,28.149 17.436,28.146 17.403,28.14 C17.169,28.094 17.001,27.889 17,27.65 L17,27.65 L17,27.65 Z M18.699,32.338 C18.784,32.394 18.881,32.422 18.977,32.422 C19.106,32.422 19.233,32.372 19.33,32.275 L34.723,16.883 C35.697,15.908 35.697,14.322 34.723,13.348 L29.129,7.754 C29.034,7.659 28.906,7.607 28.775,7.607 C28.743,7.607 28.71,7.61 28.678,7.617 C28.514,7.65 28.377,7.763 28.314,7.917 L18.515,31.731 C18.424,31.952 18.501,32.206 18.699,32.338 L18.699,32.338 L18.699,32.338 Z M18.292,36.713 C18.387,36.855 18.544,36.934 18.707,36.934 C18.772,36.934 18.836,36.922 18.898,36.896 L39.01,28.566 C39.627,28.31 40.107,27.83 40.363,27.213 C40.619,26.596 40.618,25.916 40.362,25.3 L37.335,17.991 C37.271,17.837 37.134,17.725 36.97,17.692 C36.938,17.686 36.905,17.683 36.873,17.683 C36.741,17.683 36.613,17.734 36.519,17.83 L18.353,36.082 C18.185,36.251 18.159,36.515 18.292,36.713 L18.292,36.713 L18.292,36.713 Z M40.777,30.173 C40.694,30.117 40.598,30.089 40.5,30.089 C40.435,30.089 40.369,30.101 40.308,30.127 L16.539,40.038 C16.319,40.13 16.194,40.364 16.241,40.598 C16.288,40.832 16.493,41 16.731,41 L38.5,41 C39.879,41 41,39.879 41,38.5 L41,30.589 C41,30.422 40.916,30.266 40.777,30.173 L40.777,30.173 L40.777,30.173 Z M12.5,0 L2.5,0 C1.121,0 0,1.09493023 0,2.44186047 L0,21 L15,21 L15,2.44186047 C15,1.09493023 13.879,0 12.5,0 L12.5,0 L12.5,0 Z M0,23 L15,23 L15,36.4193548 C15,37.8428387 13.879,39 12.5,39 L2.5,39 C1.121,39 0,37.8428387 0,36.4193548 L0,23 L0,23 Z M6,34.5 C6,35.32875 6.67125,36 7.5,36 C8.328,36 9,35.32875 9,34.5 C9,33.67125 8.328,33 7.5,33 C6.67125,33 6,33.67125 6,34.5 L6,34.5 L6,34.5 Z" id="Shape"></path>
                    </g>
                </g>
            </g>
        </g>
    </g>
</svg>