<?xml version="1.0" encoding="UTF-8" standalone="no"?>
<svg width="40px" height="40px" viewBox="0 0 40 40" version="1.1" xmlns="http://www.w3.org/2000/svg" xmlns:xlink="http://www.w3.org/1999/xlink" xmlns:sketch="http://www.bohemiancoding.com/sketch/ns">
    <!-- Generator: Sketch 3.1.1 (8761) - http://www.bohemiancoding.com/sketch -->
    <title>iOS Icon 2</title>
    <desc>Created with Sketch.</desc>
    <defs></defs>
    <g id="Icons" stroke="none" stroke-width="1" fill="none" fill-rule="evenodd" sketch:type="MSPage">
        <g id="Design-&amp;-Development" sketch:type="MSArtboardGroup" transform="translate(-1398.000000, -643.000000)" fill="#FFFFFF">
            <g id="iOS-Icon-2" sketch:type="MSLayerGroup" transform="translate(1398.000000, 643.000000)">
                <path d="M27.738,26.324 L21.414,20 L27.738,13.676 C29.15,15.4 30,17.602 30,20 C30,22.398 29.15,24.6 27.738,26.324 L27.738,26.324 Z M26.324,12.262 C24.599,10.85 22.397,10 20,10 C17.602,10 15.4,10.85 13.675,12.262 L20,18.586 L26.324,12.262 L26.324,12.262 Z M8,20 C8,17.051 9.074,14.351 10.845,12.259 L6,7.414 L6,32.586 L10.845,27.741 C9.074,25.649 8,22.949 8,20 L8,20 Z M10,20 C10,22.398 10.849,24.6 12.261,26.324 L18.586,20 L12.261,13.676 C10.849,15.4 10,17.602 10,20 L10,20 Z M26.324,27.738 L20,21.414 L13.675,27.738 C15.4,29.15 17.602,30 20,30 C22.397,30 24.599,29.15 26.324,27.738 L26.324,27.738 Z M20,8 C22.949,8 25.649,9.074 27.74,10.845 L32.586,6 L7.414,6 L12.259,10.845 C14.351,9.074 17.05,8 20,8 L20,8 Z M32,20 C32,22.949 30.926,25.649 29.154,27.741 L34,32.586 L34,7.414 L29.154,12.259 C30.926,14.351 32,17.051 32,20 L32,20 Z M20,32 C17.05,32 14.351,30.926 12.259,29.155 L7.414,34 L32.586,34 L27.74,29.155 C25.649,30.926 22.949,32 20,32 L20,32 Z M40,9 L40,31 C40,35.962 35.962,40 31,40 L9,40 C4.037,40 0,35.962 0,31 L0,9 C0,4.038 4.037,0 9,0 L31,0 C35.962,0 40,4.038 40,9 L40,9 Z M36,5 C36,4.448 35.552,4 35,4 L5,4 C4.447,4 4,4.448 4,5 L4,35 C4,35.552 4.447,36 5,36 L35,36 C35.552,36 36,35.552 36,35 L36,5 L36,5 Z" id="iOS-Icon" sketch:type="MSShapeGroup"></path>
            </g>
        </g>
    </g>
</svg>