<?xml version="1.0" encoding="UTF-8" standalone="no"?>
<svg width="34px" height="22px" viewBox="0 0 34 22" version="1.1" xmlns="http://www.w3.org/2000/svg" xmlns:xlink="http://www.w3.org/1999/xlink" xmlns:sketch="http://www.bohemiancoding.com/sketch/ns">
    <!-- Generator: Sketch 3.1.1 (8761) - http://www.bohemiancoding.com/sketch -->
    <title>Shape</title>
    <desc>Created with Sketch.</desc>
    <defs></defs>
    <g id="Page-1" stroke="none" stroke-width="1" fill="none" fill-rule="evenodd" sketch:type="MSPage">
        <g id="Grid" sketch:type="MSLayerGroup" fill="#FFFFFF">
            <g id="Icons" sketch:type="MSShapeGroup">
                <g id="Design-&amp;-Development">
                    <g id="Grid">
                        <path d="M34,13 L34,21 C34,21.552 33.553,22 33,22 L25,22 C24.447,22 24,21.552 24,21 L24,13 C24,12.448 24.447,12 25,12 L33,12 C33.553,12 34,12.448 34,13 L34,13 L34,13 Z M9,12 L1,12 C0.447,12 0,12.448 0,13 L0,21 C0,21.552 0.447,22 1,22 L9,22 C9.553,22 10,21.552 10,21 L10,13 C10,12.448 9.553,12 9,12 L9,12 L9,12 Z M9,0 L1,0 C0.447,0 0,0.448 0,1 L0,9 C0,9.552 0.447,10 1,10 L9,10 C9.553,10 10,9.552 10,9 L10,1 C10,0.448 9.553,0 9,0 L9,0 L9,0 Z M21,12 L13,12 C12.447,12 12,12.448 12,13 L12,21 C12,21.552 12.447,22 13,22 L21,22 C21.553,22 22,21.552 22,21 L22,13 C22,12.448 21.553,12 21,12 L21,12 L21,12 Z M33,0 L25,0 C24.447,0 24,0.448 24,1 L24,9 C24,9.552 24.447,10 25,10 L33,10 C33.553,10 34,9.552 34,9 L34,1 C34,0.448 33.553,0 33,0 L33,0 L33,0 Z M21,0 L13,0 C12.447,0 12,0.448 12,1 L12,9 C12,9.552 12.447,10 13,10 L21,10 C21.553,10 22,9.552 22,9 L22,1 C22,0.448 21.553,0 21,0 L21,0 L21,0 Z" id="Shape"></path>
                    </g>
                </g>
            </g>
        </g>
    </g>
</svg>