<?xml version="1.0" encoding="UTF-8" standalone="no"?>
<svg width="42px" height="38px" viewBox="0 0 42 38" version="1.1" xmlns="http://www.w3.org/2000/svg" xmlns:xlink="http://www.w3.org/1999/xlink" xmlns:sketch="http://www.bohemiancoding.com/sketch/ns">
    <!-- Generator: Sketch 3.1.1 (8761) - http://www.bohemiancoding.com/sketch -->
    <title>Shape</title>
    <desc>Created with Sketch.</desc>
    <defs></defs>
    <g id="Page-1" stroke="none" stroke-width="1" fill="none" fill-rule="evenodd" sketch:type="MSPage">
        <g id="code" sketch:type="MSLayerGroup" fill="#FFFFFF">
            <g id="Icons" sketch:type="MSShapeGroup">
                <g id="Design-&amp;-Development">
                    <g id="Code-Snippet">
                        <path d="M37.999,0 L3.999,0 C1.794,0 0,1.794 0,4 L0,34 C0,36.206 1.794,38 3.999,38 L37.999,38 C40.205,38 42,36.206 42,34 L42,4 C42,1.794 40.205,0 37.999,0 L37.999,0 L37.999,0 Z M14.496,25.132 C14.975,25.406 15.142,26.017 14.868,26.496 C14.683,26.819 14.346,27 13.999,27 C13.831,27 13.66,26.957 13.503,26.868 L6.503,22.868 C6.192,22.69 6,22.359 6,22 C6,21.641 6.192,21.31 6.503,21.132 L13.503,17.132 C13.983,16.859 14.594,17.024 14.868,17.504 C15.142,17.983 14.975,18.594 14.496,18.868 L9.015,22 L14.496,25.132 L14.496,25.132 Z M24.894,16.447 L18.894,28.447 C18.719,28.798 18.366,29 17.999,29 C17.849,29 17.696,28.966 17.552,28.895 C17.058,28.647 16.858,28.047 17.105,27.553 L23.105,15.553 C23.352,15.059 23.952,14.858 24.447,15.105 C24.941,15.353 25.141,15.953 24.894,16.447 L24.894,16.447 L24.894,16.447 Z M35.496,22.868 L28.496,26.868 C28.339,26.957 28.169,27 28.001,27 C27.653,27 27.316,26.819 27.131,26.496 C26.858,26.017 27.024,25.406 27.503,25.132 L32.984,22 L27.503,18.868 C27.024,18.594 26.858,17.983 27.131,17.504 C27.405,17.024 28.017,16.859 28.496,17.132 L35.496,21.132 C35.807,21.31 36,21.641 36,22 C36,22.359 35.807,22.69 35.496,22.868 L35.496,22.868 L35.496,22.868 Z M39,9 L3,9 C2.447,9 2,8.552 2,8 C2,7.448 2.447,7 3,7 L39,7 C39.552,7 39.999,7.448 39.999,8 C39.999,8.552 39.552,9 39,9 L39,9 L39,9 Z" id="Shape"></path>
                    </g>
                </g>
            </g>
        </g>
    </g>
</svg>